<svg width="57" height="57" viewBox="0 0 57 57" fill="none" xmlns="http://www.w3.org/2000/svg">
<g id="scan-barcode-svgrepo-com 1" clip-path="url(#clip0_1_372)">
<g id="SVGRepo_iconCarrier">
<path id="Vector" d="M54.625 10.6875V19H52.25V10.6875C52.2487 9.74305 51.873 8.83765 51.2052 8.16982C50.5374 7.50199 49.6319 7.12626 48.6875 7.125H40.375V4.75H48.6875C50.2616 4.75189 51.7708 5.37805 52.8839 6.49114C53.997 7.60422 54.6231 9.11336 54.625 10.6875ZM10.6875 52.25C9.74305 52.2487 8.83765 51.873 8.16982 51.2052C7.50199 50.5374 7.12626 49.6319 7.125 48.6875V40.375H4.75V48.6875C4.75189 50.2616 5.37805 51.7708 6.49114 52.8839C7.60422 53.997 9.11336 54.6231 10.6875 54.625H19V52.25H10.6875ZM52.25 48.6875C52.2487 49.6319 51.873 50.5374 51.2052 51.2052C50.5374 51.873 49.6319 52.2487 48.6875 52.25H40.375V54.625H48.6875C50.2616 54.6231 51.7708 53.997 52.8839 52.8839C53.997 51.7708 54.6231 50.2616 54.625 48.6875V40.375H52.25V48.6875ZM7.125 10.6875C7.12626 9.74305 7.50199 8.83765 8.16982 8.16982C8.83765 7.50199 9.74305 7.12626 10.6875 7.125H19V4.75H10.6875C9.11336 4.75189 7.60422 5.37805 6.49114 6.49114C5.37805 7.60422 4.75189 9.11336 4.75 10.6875V19H7.125V10.6875ZM23.75 45.125V14.25H21.375V45.125H23.75ZM14.25 14.25V45.125H19V14.25H14.25ZM33.25 45.125V14.25H28.5V45.125H33.25ZM40.375 14.25V45.125H45.125V14.25H40.375ZM35.625 14.25V45.125H38V14.25H35.625Z" fill="white" stroke="white" stroke-width="0.008"/>
<path id="Vector_2" d="M0 0H57V57H0V0Z" stroke="white" stroke-width="0.008"/>
</g>
</g>
<defs>
<clipPath id="clip0_1_372">
<rect width="57" height="57" fill="white"/>
</clipPath>
</defs>
</svg>
